<?xml version="1.0" standalone="no"?>
<!DOCTYPE svg PUBLIC "-//W3C//DTD SVG 20010904//EN"
 "http://www.w3.org/TR/2001/REC-SVG-20010904/DTD/svg10.dtd">
<svg version="1.0" xmlns="http://www.w3.org/2000/svg"
 width="580.000000pt" height="387.000000pt" viewBox="0 0 580.000000 387.000000"
 preserveAspectRatio="xMidYMid meet">

<g transform="translate(0.000000,387.000000) scale(0.100000,-0.100000)"
fill="#000000" stroke="none">
<path d="M3014 3761 c-22 -10 -52 -33 -66 -51 l-25 -32 -12 30 c-24 57 -72 63
-233 32 -121 -23 -195 -57 -374 -168 -234 -146 -332 -229 -491 -419 -51 -62
-126 -140 -166 -173 -158 -134 -188 -164 -240 -243 -68 -102 -151 -256 -144
-264 13 -12 56 8 101 48 l47 41 -26 -68 c-27 -71 -79 -149 -148 -221 -23 -24
-38 -45 -34 -49 19 -19 127 48 220 138 48 46 52 38 51 -92 -1 -71 -6 -110 -22
-154 -12 -33 -22 -63 -22 -68 0 -23 32 2 77 58 l49 61 28 -158 c23 -127 28
-175 23 -239 l-6 -80 50 0 c27 0 77 9 110 20 34 12 63 20 64 18 2 -2 -1 -28
-7 -58 -18 -99 -6 -203 39 -318 37 -96 62 -131 55 -79 -14 112 -13 128 2 175
19 55 52 95 60 71 2 -8 14 -41 26 -73 38 -106 50 -178 60 -341 7 -119 16 -184
35 -255 14 -52 30 -99 35 -104 7 -7 10 24 10 82 0 93 21 176 39 156 4 -5 20
-54 35 -109 15 -55 39 -120 53 -145 55 -97 215 -331 221 -325 4 3 5 36 4 73
-4 93 8 106 47 52 39 -55 46 -88 46 -238 0 -128 8 -147 39 -99 22 33 71 155
86 214 l13 52 50 -26 c108 -54 192 -164 204 -265 10 -89 16 -90 68 -10 25 40
56 96 67 125 12 29 24 56 28 60 9 11 45 -75 61 -145 7 -34 18 -58 25 -58 33 0
64 78 100 247 9 45 20 80 24 78 13 -8 30 -87 39 -178 5 -48 12 -91 16 -95 16
-16 34 37 59 170 33 173 54 233 102 300 l38 51 18 -89 c27 -136 61 -238 80
-242 14 -3 16 4 11 50 -4 38 1 77 17 135 l22 82 49 -24 c69 -35 152 -55 231
-55 37 0 68 3 68 6 0 3 -18 26 -39 50 -49 55 -80 122 -121 254 -28 92 -31 111
-25 174 9 88 24 132 71 201 44 67 41 86 -12 78 l-38 -6 22 34 c13 19 36 60 53
93 27 51 29 61 16 73 -24 24 -87 26 -155 5 l-63 -20 6 21 c4 12 26 56 49 97
33 58 63 92 131 152 49 42 110 89 137 105 26 15 48 33 48 40 0 7 -34 35 -75
63 -72 49 -125 106 -147 160 -14 34 -38 133 -33 138 2 2 14 -20 27 -49 12 -30
57 -96 98 -149 85 -106 70 -99 224 -103 58 -2 60 -1 67 27 5 16 11 79 15 140
4 65 13 123 21 140 l15 29 18 -23 c16 -21 20 -22 35 -10 14 12 18 12 26 -1 22
-32 39 -69 39 -83 0 -21 21 -31 30 -16 5 7 11 33 14 57 3 23 9 63 12 88 4 30
11 45 21 45 15 0 15 -1 -7 124 -13 77 -13 76 6 76 15 0 16 9 10 71 -7 82 -37
150 -97 221 -21 25 -37 53 -34 60 7 17 -78 93 -222 201 -68 52 -138 118 -212
202 -99 110 -120 129 -192 166 -49 26 -111 70 -160 115 -43 40 -94 77 -112 83
-41 13 -211 29 -257 24 -22 -3 -69 7 -128 26 -108 36 -114 37 -168 12z m164
-57 c84 -35 92 -37 224 -39 156 -3 149 -1 270 -100 40 -33 117 -84 170 -114
85 -47 108 -66 184 -152 114 -131 174 -184 272 -244 45 -28 82 -53 82 -57 0
-4 -16 -4 -35 -1 -19 3 -35 1 -35 -4 0 -5 19 -27 41 -48 45 -43 99 -113 99
-127 0 -5 -16 -6 -35 -2 -19 3 -35 4 -35 1 0 -20 19 -43 62 -71 55 -37 51 -49
-17 -61 -69 -13 -70 -16 -15 -79 28 -31 58 -72 67 -89 18 -35 34 -97 25 -97
-2 0 -27 20 -53 45 -44 41 -79 57 -79 36 0 -4 18 -29 41 -55 33 -37 40 -52 35
-71 -6 -25 -30 -34 -41 -15 -10 16 -51 12 -66 -6 -9 -11 -14 -49 -15 -118 0
-55 -1 -107 -2 -115 -2 -16 -52 32 -67 66 -5 12 -27 36 -49 52 -25 20 -33 31
-22 31 31 0 29 30 -6 88 -47 80 -64 125 -78 216 l-13 79 -19 -37 c-38 -74 -51
-154 -44 -268 4 -59 11 -120 16 -137 22 -77 -35 -20 -71 70 -34 87 -35 160 -5
270 14 53 26 121 26 150 0 30 5 81 10 114 9 54 8 61 -12 82 -12 13 -17 23 -11
23 38 0 11 136 -54 264 -32 64 -146 196 -159 184 -2 -3 16 -35 41 -72 87 -130
131 -348 105 -521 -13 -85 -14 -88 -21 -50 -4 22 -8 87 -9 145 0 58 -5 125
-11 150 -11 51 -78 190 -91 190 -10 0 -11 3 12 -57 49 -129 59 -225 51 -483
-3 -94 -1 -113 23 -176 31 -84 32 -104 9 -147 -9 -18 -22 -59 -29 -92 -6 -33
-14 -53 -17 -45 -3 8 -8 24 -12 35 -6 17 -10 14 -28 -25 -17 -35 -22 -70 -25
-162 l-4 -116 -30 -13 c-54 -22 -143 -95 -182 -148 -21 -29 -40 -51 -41 -49
-2 2 9 48 24 103 16 55 36 150 45 212 16 115 22 313 8 313 -4 0 -17 -52 -30
-115 -24 -125 -66 -240 -112 -304 -33 -46 -67 -57 -166 -54 -73 1 -144 34
-199 90 -42 43 -79 109 -70 124 4 5 40 32 80 59 41 27 85 65 99 83 44 58 72
166 47 181 -5 4 -12 -7 -16 -24 -13 -59 -86 -87 -150 -58 -28 13 -44 53 -26
71 8 8 11 6 11 -8 0 -48 55 -68 110 -40 40 20 60 63 60 125 0 65 -28 121 -77
151 -34 22 -48 24 -140 22 -85 -2 -113 -7 -177 -32 -99 -38 -138 -68 -170
-133 -27 -54 -36 -141 -16 -153 6 -4 8 -14 5 -24 -8 -25 47 -94 103 -129 26
-17 83 -45 127 -62 44 -18 84 -36 89 -40 13 -13 -12 -104 -42 -150 -53 -81
-168 -112 -261 -70 -62 29 -168 142 -257 276 -42 63 -78 113 -80 111 -7 -6 62
-190 96 -258 18 -35 65 -117 104 -182 39 -64 95 -156 124 -204 28 -48 52 -98
52 -111 0 -22 -3 -24 -31 -18 -17 3 -37 6 -45 6 -7 0 -34 28 -60 63 -61 81
-76 93 -85 70 -5 -13 -16 2 -42 57 -42 88 -92 151 -105 133 -5 -8 -18 18 -36
72 -15 47 -31 85 -37 85 -5 0 -9 -4 -9 -10 0 -5 -4 -10 -10 -10 -5 0 -10 15
-10 34 0 34 -20 61 -28 38 -10 -30 -20 -5 -26 65 -3 42 -22 136 -41 208 -121
459 -135 527 -144 685 l-8 135 -1 -135 c-2 -138 2 -164 66 -455 28 -125 35
-219 23 -294 -12 -77 -23 -91 -49 -68 -30 27 -99 174 -128 272 -28 96 -37 226
-20 299 7 31 6 38 -5 34 -28 -9 -51 -111 -65 -292 -7 -98 -18 -203 -24 -234
-18 -97 -9 -114 36 -71 l23 21 15 -53 c9 -29 16 -61 16 -72 0 -14 5 -18 19
-14 34 8 43 -61 16 -113 -25 -49 -131 -110 -191 -110 -22 0 -22 3 -26 133 -3
100 -12 169 -38 287 -18 85 -36 159 -40 163 -4 5 -17 -6 -28 -25 l-21 -32 6
130 c6 142 0 162 -39 127 -21 -18 -21 -18 -13 22 4 22 9 54 10 71 2 22 27 61
80 125 42 52 133 163 202 247 145 178 246 263 432 363 130 70 159 88 284 176
97 68 211 113 288 113 54 0 69 -13 79 -70 l7 -40 -36 5 -36 6 32 -29 c37 -36
54 -65 45 -78 -4 -5 -26 -22 -49 -38 -24 -16 -43 -30 -43 -32 0 -2 20 -1 44 2
l45 7 9 -39 c6 -22 14 -52 18 -69 l8 -30 3 30 c8 71 11 75 53 75 23 0 40 5 40
11 0 6 -20 29 -45 51 -25 22 -48 50 -51 63 -17 68 62 185 125 185 17 0 71 -16
119 -36z m-81 -1094 c24 -10 43 -20 43 -22 0 -2 -27 -1 -59 0 -45 3 -71 -2
-108 -18 -27 -13 -78 -24 -118 -28 -38 -3 -90 -14 -115 -26 -25 -11 -49 -22
-55 -24 -5 -3 8 14 30 37 96 100 260 135 382 81z m-273 -212 c9 -12 16 -34 16
-48 0 -55 -92 -100 -135 -66 -19 16 -19 16 8 10 39 -9 85 13 104 49 15 30 15
31 -13 54 -21 17 -25 23 -12 23 9 0 24 -10 32 -22z m1095 -205 c21 -83 48
-129 90 -161 37 -27 40 -60 9 -89 -13 -11 -66 -48 -120 -82 -114 -74 -232
-192 -272 -273 -33 -68 -32 -103 4 -104 14 -1 29 -2 34 -3 4 0 -8 -19 -29 -42
-35 -39 -85 -130 -85 -155 0 -6 23 -14 51 -16 76 -8 81 -20 28 -70 -48 -47
-119 -148 -119 -171 0 -15 47 -27 109 -27 l34 0 -65 -68 c-83 -86 -131 -161
-158 -248 -36 -117 -28 -113 -99 -40 -34 36 -64 66 -66 66 -1 0 -5 -33 -7 -72
-4 -72 -32 -153 -48 -143 -5 3 -12 20 -15 38 -10 43 -63 147 -75 147 -13 0
-11 11 -19 -100 -6 -85 -11 -102 -47 -165 l-39 -70 -7 75 c-9 105 -28 188 -48
213 -17 21 -18 21 -44 -34 -14 -30 -37 -66 -50 -78 l-25 -23 -14 50 c-22 72
-41 105 -124 214 -71 94 -93 110 -93 68 0 -42 -61 -130 -90 -130 -5 0 -21 39
-35 87 -15 49 -35 108 -46 133 -20 45 -81 120 -98 120 -5 0 -15 -25 -22 -55
-13 -56 -29 -83 -29 -47 0 44 -62 261 -94 328 -43 90 -204 344 -223 351 -8 3
-27 -4 -43 -16 -41 -30 -48 -27 -56 25 -14 95 -11 125 16 143 49 33 85 67 127
125 36 49 43 55 37 31 -13 -52 -34 -96 -80 -164 -43 -64 -53 -91 -36 -91 17 0
88 58 130 105 39 44 42 46 42 23 0 -14 -9 -51 -20 -84 -30 -85 -22 -98 28 -46
l42 43 -1 -103 c0 -111 13 -164 57 -230 17 -27 31 -38 49 -38 28 0 28 -1 25
111 -2 77 7 149 19 149 3 0 18 -27 33 -60 27 -62 46 -75 55 -40 7 25 14 25 48
-2 22 -17 31 -19 46 -10 15 10 19 9 19 -1 0 -7 11 -36 25 -64 21 -42 36 -56
84 -82 32 -17 66 -31 75 -31 9 0 26 -15 38 -33 57 -84 116 -162 146 -195 32
-34 34 -35 85 -26 29 4 86 8 127 9 41 0 83 4 93 9 21 10 114 150 159 238 15
31 33 82 39 114 20 110 204 365 299 414 20 10 62 26 94 35 52 15 57 19 51 38
-10 32 -21 197 -13 197 4 0 11 -7 16 -17 21 -36 39 -6 51 87 7 50 15 90 17 87
2 -2 12 -36 23 -74z m-646 -397 c63 -27 65 -32 69 -241 l3 -190 -32 -50 c-18
-28 -44 -63 -59 -80 -14 -16 -40 -54 -56 -83 l-30 -52 -63 6 c-46 5 -76 2
-115 -11 -51 -17 -53 -17 -78 2 -15 11 -49 52 -77 91 -27 39 -62 85 -76 104
-32 40 -49 88 -49 137 -1 34 55 279 70 310 15 33 58 53 110 54 46 1 56 -3 80
-29 26 -30 27 -35 33 -183 3 -84 8 -156 12 -159 15 -15 25 30 25 113 0 102 10
147 43 196 48 71 119 95 190 65z"/>
<path d="M3394 3275 c-10 -8 -27 -15 -36 -15 -10 0 -18 -4 -18 -10 0 -5 -9
-10 -19 -10 -22 0 -31 -19 -31 -66 0 -29 -5 -36 -33 -48 -42 -17 -87 -70 -87
-102 0 -13 -4 -24 -9 -24 -15 0 -41 78 -42 128 0 26 -4 67 -8 92 -7 44 -7 44
-16 -34 -14 -138 4 -234 56 -300 12 -15 63 -59 114 -96 90 -66 154 -140 200
-230 29 -57 29 -15 0 57 -36 90 -51 111 -172 234 -85 86 -102 107 -87 113 11
4 31 -3 55 -20 74 -51 180 -42 279 24 34 22 72 38 100 42 l45 6 -32 17 c-17 9
-58 40 -90 69 -80 73 -118 98 -148 98 -36 0 -31 12 15 40 22 14 40 31 40 38 0
17 -52 15 -76 -3z m20 -191 c7 -19 -1 -34 -19 -34 -18 0 -28 17 -21 35 7 20
32 19 40 -1z m120 -43 c10 -11 15 -25 11 -31 -12 -20 -88 -50 -125 -49 l-35 0
40 14 c41 15 75 47 75 71 0 20 14 17 34 -5z m-220 -37 c5 -14 4 -15 -9 -4 -17
14 -19 20 -6 20 5 0 12 -7 15 -16z"/>
<path d="M2678 3130 c-3 -63 -12 -133 -18 -155 l-13 -40 -17 41 c-10 23 -36
56 -58 74 -24 19 -42 43 -46 61 -6 32 -30 39 -44 13 -8 -14 -10 -14 -15 -1 -7
20 -96 72 -105 62 -4 -4 3 -15 16 -25 12 -10 22 -23 22 -28 0 -5 7 -15 15 -22
20 -17 19 -30 -3 -30 -49 0 -158 -77 -138 -97 7 -7 -10 -40 -47 -86 -34 -44
-28 -59 14 -35 27 16 31 16 74 -3 67 -30 136 -35 190 -15 25 10 49 24 53 32 9
16 72 37 72 25 0 -5 -21 -39 -46 -77 -92 -137 -143 -268 -144 -366 0 -84 36
-25 65 106 13 60 25 84 55 119 48 54 102 153 130 237 26 77 29 187 8 270 l-14
55 -6 -115z m-221 -136 c9 -23 -13 -40 -32 -24 -12 10 -13 16 -4 26 15 18 28
18 36 -2z m-88 -103 c14 -12 12 -13 -14 -7 -46 11 -60 29 -45 57 l13 23 14
-30 c8 -16 23 -35 32 -43z m161 39 c0 -5 -9 -14 -21 -20 -19 -11 -20 -10 -9 9
11 22 30 29 30 11z"/>
</g>
</svg>
